<svg width="880" height="880" viewBox="0 0 880 880" fill="none" xmlns="http://www.w3.org/2000/svg">
<circle cx="440" cy="440" r="400" stroke="black" stroke-width="80"/>
<path fill-rule="evenodd" clip-rule="evenodd" d="M729 240.14V528H648V190.39C670.615 212.647 698.227 229.843 729 240.14Z" fill="black"/>
<rect x="400" y="293" width="81" height="363" fill="black"/>
<path fill-rule="evenodd" clip-rule="evenodd" d="M149 240.14V639.86C179.773 650.157 207.385 667.353 230 689.61V190.39C207.385 212.648 179.773 229.843 149 240.14Z" fill="black"/>
<path fill-rule="evenodd" clip-rule="evenodd" d="M91.2434 400.095C263.945 403.654 412.198 506.717 481 654.281V788.631C467.551 790.196 453.869 791 440 791C439.564 791 439.128 790.999 438.693 790.998C415.195 618.342 269.286 484.615 91.2675 480.117C89.7696 466.952 89 453.566 89 440C89 426.507 89.7614 413.192 91.2434 400.095Z" fill="black"/>
<path d="M481 654.281H481.5V654.17L481.453 654.07L481 654.281ZM91.2434 400.095L91.2537 399.595L90.7979 399.586L90.7466 400.039L91.2434 400.095ZM481 788.631L481.058 789.128L481.5 789.076V788.631H481ZM438.693 790.998L438.197 791.065L438.256 791.496L438.691 791.498L438.693 790.998ZM91.2675 480.117L90.7707 480.174L90.8199 480.606L91.2549 480.617L91.2675 480.117ZM481.453 654.07C412.573 506.339 264.152 403.158 91.2537 399.595L91.2331 400.595C263.737 404.15 411.822 507.095 480.547 654.492L481.453 654.07ZM481.5 788.631V654.281H480.5V788.631H481.5ZM480.942 788.134C467.512 789.697 453.85 790.5 440 790.5V791.5C453.889 791.5 467.589 790.695 481.058 789.128L480.942 788.134ZM440 790.5C439.565 790.5 439.13 790.499 438.695 790.498L438.691 791.498C439.127 791.499 439.564 791.5 440 791.5V790.5ZM91.2549 480.617C269.026 485.109 414.732 618.65 438.197 791.065L439.188 790.93C415.658 618.035 269.547 484.122 91.2801 479.617L91.2549 480.617ZM91.7643 480.06C90.2685 466.914 89.5 453.547 89.5 440H88.5C88.5 453.585 89.2707 466.99 90.7707 480.174L91.7643 480.06ZM89.5 440C89.5 426.526 90.2603 413.23 91.7403 400.151L90.7466 400.039C89.2624 413.154 88.5 426.488 88.5 440H89.5Z" fill="black"/>
<path fill-rule="evenodd" clip-rule="evenodd" d="M400 263C548.552 288.865 671.521 389.234 729 524.197V639.86C712.454 645.396 696.821 652.927 682.388 662.168C667.524 504.875 551.456 377.046 400 344.498V263Z" fill="black"/>
<path d="M729 524.197H729.5V524.095L729.46 524.001L729 524.197ZM400 263L400.086 262.507L399.5 262.405V263H400ZM729 639.86L729.159 640.334L729.5 640.22V639.86H729ZM682.388 662.168L681.89 662.215L681.967 663.031L682.658 662.589L682.388 662.168ZM400 344.498H399.5V344.902L399.895 344.986L400 344.498ZM729.46 524.001C671.916 388.885 548.808 288.403 400.086 262.507L399.914 263.493C548.296 289.328 671.127 389.583 728.54 524.393L729.46 524.001ZM729.5 639.86V524.197H728.5V639.86H729.5ZM728.841 639.385C712.255 644.935 696.586 652.485 682.118 661.747L682.658 662.589C697.057 653.37 712.652 645.857 729.159 640.334L728.841 639.385ZM399.895 344.986C551.14 377.489 667.047 505.142 681.89 662.215L682.886 662.121C668.001 504.608 551.772 376.602 400.105 344.009L399.895 344.986ZM399.5 263V344.498H400.5V263H399.5Z" fill="black"/>
<path fill-rule="evenodd" clip-rule="evenodd" d="M518.244 97.753C490.353 310.484 310.501 475.386 91.2434 479.905C89.7613 466.808 89 453.493 89 440C89 426.434 89.7696 413.048 91.2675 399.883C269.286 395.385 415.195 261.657 438.693 89.0024C439.128 89.0008 439.564 89 440 89C466.895 89 493.083 92.0249 518.244 97.753Z" fill="black"/>
<path d="M518.244 97.753L518.739 97.818L518.798 97.3665L518.355 97.2655L518.244 97.753ZM91.2434 479.905L90.7466 479.961L90.7979 480.414L91.2537 480.405L91.2434 479.905ZM91.2675 399.883L91.2549 399.383L90.8199 399.394L90.7707 399.826L91.2675 399.883ZM438.693 89.0024L438.691 88.5024L438.256 88.504L438.197 88.935L438.693 89.0024ZM517.748 97.688C489.889 310.176 310.241 474.891 91.2331 479.405L91.2537 480.405C310.761 475.881 490.817 310.791 518.739 97.818L517.748 97.688ZM91.7403 479.849C90.2603 466.771 89.5 453.474 89.5 440H88.5C88.5 453.512 89.2624 466.846 90.7466 479.961L91.7403 479.849ZM89.5 440C89.5 426.453 90.2685 413.086 91.7643 399.939L90.7707 399.826C89.2707 413.01 88.5 426.415 88.5 440H89.5ZM91.2801 400.383C269.547 395.878 415.657 261.965 439.188 89.0698L438.197 88.935C414.732 261.35 269.026 394.891 91.2549 399.383L91.2801 400.383ZM438.695 89.5024C439.129 89.5008 439.565 89.5 440 89.5V88.5C439.563 88.5 439.127 88.5008 438.691 88.5024L438.695 89.5024ZM440 89.5C466.857 89.5 493.008 92.5206 518.133 98.2405L518.355 97.2655C493.158 91.5291 466.932 88.5 440 88.5V89.5Z" fill="black"/>
</svg>
