<svg width="15" height="15" viewBox="0 0 15 15" fill="none" xmlns="http://www.w3.org/2000/svg">
<circle cx="7.5" cy="7.5" r="6.5" stroke="#424647" stroke-width="2"/>
<path d="M7.23864 11H4.55043V3.72727H7.23509C7.97609 3.72727 8.61411 3.87287 9.14915 4.16406C9.68655 4.45289 10.1009 4.86955 10.392 5.41406C10.6832 5.9562 10.8288 6.60488 10.8288 7.36009C10.8288 8.11766 10.6832 8.7687 10.392 9.31321C10.1032 9.85772 9.6901 10.2756 9.1527 10.5668C8.61529 10.8556 7.97727 11 7.23864 11ZM6.30824 9.50142H7.17116C7.57836 9.50142 7.92282 9.43277 8.20455 9.29545C8.48864 9.15578 8.70289 8.92969 8.8473 8.61719C8.99408 8.30232 9.06747 7.88329 9.06747 7.36009C9.06747 6.83688 8.99408 6.42022 8.8473 6.11009C8.70052 5.79759 8.4839 5.57268 8.19744 5.43537C7.91335 5.29569 7.56297 5.22585 7.14631 5.22585H6.30824V9.50142Z" fill="#424647"/>
</svg>
